<svg xmlns="http://www.w3.org/2000/svg" xmlns:xlink="http://www.w3.org/1999/xlink" width="576" zoomAndPan="magnify" viewBox="310 -42 758 892" height="499" preserveAspectRatio="xMidYMid meet" version="1.0"><defs></defs><path fill="#000000" d="M 872.550781 399.917969 L 872.550781 153.132812 C 872.550781 150.636719 872.492188 148.144531 872.367188 145.652344 C 872.246094 143.160156 872.0625 140.675781 871.816406 138.191406 C 871.574219 135.710938 871.269531 133.234375 870.902344 130.765625 C 870.535156 128.300781 870.109375 125.84375 869.621094 123.394531 C 869.136719 120.949219 868.589844 118.515625 867.984375 116.09375 C 867.375 113.675781 866.710938 111.273438 865.988281 108.886719 C 865.261719 106.496094 864.480469 104.128906 863.640625 101.78125 C 862.796875 99.433594 861.902344 97.105469 860.945312 94.800781 C 859.992188 92.496094 858.980469 90.214844 857.914062 87.960938 C 856.847656 85.707031 855.726562 83.480469 854.546875 81.277344 C 853.371094 79.078125 852.144531 76.910156 850.859375 74.769531 C 849.578125 72.628906 848.242188 70.523438 846.855469 68.449219 C 845.46875 66.375 844.035156 64.335938 842.546875 62.332031 C 841.0625 60.328125 839.527344 58.363281 837.941406 56.433594 C 836.359375 54.503906 834.730469 52.617188 833.054688 50.769531 C 831.378906 48.921875 829.660156 47.113281 827.894531 45.351562 C 826.128906 43.585938 824.324219 41.867188 822.476562 40.191406 C 820.625 38.515625 818.738281 36.886719 816.808594 35.304688 C 814.878906 33.722656 812.914062 32.1875 810.910156 30.703125 C 808.902344 29.214844 806.863281 27.78125 804.789062 26.394531 C 802.714844 25.007812 800.609375 23.671875 798.46875 22.390625 C 796.328125 21.109375 794.15625 19.878906 791.957031 18.703125 C 789.753906 17.527344 787.527344 16.40625 785.269531 15.339844 C 783.015625 14.273438 780.734375 13.261719 778.429688 12.308594 C 776.125 11.351562 773.796875 10.457031 771.449219 9.617188 C 769.097656 8.773438 766.730469 7.992188 764.339844 7.269531 C 761.953125 6.542969 759.550781 5.878906 757.128906 5.273438 C 754.707031 4.667969 752.273438 4.121094 749.828125 3.632812 C 747.378906 3.148438 744.921875 2.722656 742.453125 2.355469 C 739.984375 1.988281 737.511719 1.683594 735.027344 1.4375 C 732.542969 1.195312 730.054688 1.011719 727.5625 0.890625 C 725.070312 0.765625 722.578125 0.707031 720.082031 0.707031 C 717.585938 0.707031 715.09375 0.765625 712.601562 0.890625 C 710.109375 1.011719 707.621094 1.195312 705.136719 1.4375 C 702.652344 1.683594 700.179688 1.988281 697.710938 2.355469 C 695.242188 2.722656 692.785156 3.148438 690.335938 3.632812 C 687.890625 4.121094 685.453125 4.667969 683.035156 5.273438 C 680.613281 5.878906 678.210938 6.542969 675.820312 7.269531 C 673.433594 7.992188 671.066406 8.773438 668.714844 9.617188 C 666.367188 10.457031 664.039062 11.351562 661.734375 12.308594 C 659.429688 13.261719 657.148438 14.273438 654.890625 15.339844 C 652.636719 16.40625 650.410156 17.527344 648.207031 18.703125 C 646.007812 19.878906 643.835938 21.109375 641.695312 22.390625 C 639.554688 23.671875 637.449219 25.007812 635.375 26.394531 C 633.300781 27.78125 631.257812 29.214844 629.253906 30.703125 C 627.25 32.1875 625.285156 33.722656 623.355469 35.304688 C 621.425781 36.886719 619.539062 38.515625 617.6875 40.191406 C 615.839844 41.867188 614.035156 43.585938 612.269531 45.351562 C 610.503906 47.113281 608.785156 48.921875 607.109375 50.769531 C 605.433594 52.617188 603.804688 54.503906 602.21875 56.433594 C 600.636719 58.363281 599.101562 60.328125 597.617188 62.332031 C 596.128906 64.335938 594.695312 66.375 593.308594 68.449219 C 591.921875 70.523438 590.585938 72.628906 589.304688 74.769531 C 588.019531 76.910156 586.789062 79.078125 585.613281 81.277344 C 584.4375 83.480469 583.316406 85.707031 582.25 87.960938 C 581.183594 90.214844 580.171875 92.496094 579.21875 94.800781 C 578.261719 97.105469 577.363281 99.433594 576.523438 101.78125 C 575.683594 104.128906 574.902344 106.496094 574.175781 108.886719 C 573.453125 111.273438 572.785156 113.675781 572.179688 116.09375 C 571.574219 118.515625 571.027344 120.949219 570.539062 123.394531 C 570.054688 125.84375 569.628906 128.300781 569.261719 130.765625 C 568.894531 133.234375 568.589844 135.710938 568.34375 138.191406 C 568.101562 140.675781 567.917969 143.160156 567.792969 145.652344 C 567.671875 148.144531 567.609375 150.636719 567.609375 153.132812 L 567.609375 399.917969 C 567.609375 402.414062 567.671875 404.90625 567.792969 407.398438 C 567.917969 409.890625 568.101562 412.378906 568.34375 414.859375 C 568.589844 417.34375 568.894531 419.816406 569.261719 422.285156 C 569.628906 424.753906 570.054688 427.210938 570.539062 429.65625 C 571.027344 432.101562 571.574219 434.535156 572.179688 436.957031 C 572.785156 439.375 573.453125 441.777344 574.175781 444.167969 C 574.902344 446.554688 575.683594 448.921875 576.523438 451.269531 C 577.363281 453.617188 578.261719 455.945312 579.21875 458.25 C 580.171875 460.554688 581.183594 462.835938 582.25 465.089844 C 583.316406 467.34375 584.4375 469.574219 585.613281 471.773438 C 586.789062 473.972656 588.019531 476.144531 589.304688 478.28125 C 590.585938 480.421875 591.921875 482.527344 593.308594 484.601562 C 594.695312 486.675781 596.128906 488.714844 597.617188 490.71875 C 599.101562 492.722656 600.636719 494.691406 602.21875 496.617188 C 603.804688 498.546875 605.433594 500.433594 607.109375 502.28125 C 608.785156 504.132812 610.503906 505.9375 612.269531 507.703125 C 614.035156 509.464844 615.839844 511.183594 617.6875 512.859375 C 619.539062 514.535156 621.425781 516.164062 623.355469 517.746094 C 625.285156 519.328125 627.25 520.863281 629.253906 522.351562 C 631.257812 523.835938 633.300781 525.273438 635.375 526.65625 C 637.449219 528.042969 639.554688 529.378906 641.695312 530.660156 C 643.835938 531.941406 646.007812 533.171875 648.207031 534.347656 C 650.410156 535.523438 652.636719 536.644531 654.890625 537.710938 C 657.148438 538.777344 659.429688 539.789062 661.734375 540.742188 C 664.039062 541.699219 666.367188 542.59375 668.714844 543.4375 C 671.066406 544.277344 673.433594 545.058594 675.820312 545.78125 C 678.210938 546.507812 680.613281 547.171875 683.035156 547.777344 C 685.453125 548.382812 687.890625 548.929688 690.335938 549.417969 C 692.785156 549.902344 695.242188 550.332031 697.710938 550.695312 C 700.179688 551.0625 702.652344 551.367188 705.136719 551.613281 C 707.621094 551.855469 710.109375 552.039062 712.601562 552.164062 C 715.09375 552.285156 717.585938 552.347656 720.082031 552.347656 C 722.578125 552.347656 725.070312 552.285156 727.5625 552.164062 C 730.054688 552.039062 732.542969 551.855469 735.027344 551.613281 C 737.511719 551.367188 739.984375 551.0625 742.453125 550.695312 C 744.921875 550.332031 747.378906 549.902344 749.828125 549.417969 C 752.273438 548.929688 754.707031 548.382812 757.128906 547.777344 C 759.550781 547.171875 761.953125 546.507812 764.339844 545.78125 C 766.730469 545.058594 769.097656 544.277344 771.449219 543.4375 C 773.796875 542.59375 776.125 541.699219 778.429688 540.742188 C 780.734375 539.789062 783.015625 538.777344 785.269531 537.710938 C 787.527344 536.644531 789.753906 535.523438 791.957031 534.347656 C 794.15625 533.171875 796.328125 531.941406 798.46875 530.660156 C 800.609375 529.378906 802.714844 528.042969 804.789062 526.65625 C 806.863281 525.273438 808.902344 523.835938 810.910156 522.351562 C 812.914062 520.863281 814.878906 519.328125 816.808594 517.746094 C 818.738281 516.164062 820.625 514.535156 822.476562 512.859375 C 824.324219 511.183594 826.128906 509.464844 827.894531 507.703125 C 829.660156 505.9375 831.378906 504.132812 833.054688 502.28125 C 834.730469 500.433594 836.359375 498.546875 837.941406 496.617188 C 839.527344 494.691406 841.0625 492.722656 842.546875 490.71875 C 844.035156 488.714844 845.46875 486.675781 846.855469 484.601562 C 848.242188 482.527344 849.578125 480.421875 850.859375 478.28125 C 852.144531 476.144531 853.371094 473.972656 854.546875 471.773438 C 855.726562 469.574219 856.847656 467.34375 857.914062 465.089844 C 858.980469 462.835938 859.992188 460.554688 860.945312 458.25 C 861.902344 455.945312 862.796875 453.617188 863.640625 451.269531 C 864.480469 448.921875 865.261719 446.554688 865.988281 444.167969 C 866.710938 441.777344 867.375 439.375 867.984375 436.957031 C 868.589844 434.535156 869.136719 432.101562 869.621094 429.65625 C 870.109375 427.210938 870.535156 424.753906 870.902344 422.285156 C 871.269531 419.816406 871.574219 417.34375 871.816406 414.859375 C 872.0625 412.378906 872.246094 409.890625 872.367188 407.398438 C 872.492188 404.90625 872.550781 402.414062 872.550781 399.917969 Z M 606.332031 399.917969 L 606.332031 386.226562 L 648.300781 386.226562 C 648.933594 386.226562 649.566406 386.195312 650.199219 386.132812 C 650.828125 386.070312 651.453125 385.976562 652.078125 385.851562 C 652.699219 385.730469 653.3125 385.574219 653.917969 385.390625 C 654.527344 385.207031 655.121094 384.992188 655.707031 384.75 C 656.292969 384.507812 656.867188 384.238281 657.425781 383.9375 C 657.984375 383.640625 658.527344 383.316406 659.054688 382.960938 C 659.582031 382.609375 660.09375 382.234375 660.582031 381.832031 C 661.074219 381.429688 661.542969 381.003906 661.988281 380.554688 C 662.4375 380.105469 662.863281 379.636719 663.265625 379.148438 C 663.667969 378.65625 664.046875 378.148438 664.398438 377.621094 C 664.75 377.09375 665.074219 376.550781 665.375 375.992188 C 665.671875 375.433594 665.945312 374.863281 666.1875 374.277344 C 666.429688 373.691406 666.644531 373.09375 666.828125 372.488281 C 667.011719 371.882812 667.164062 371.265625 667.289062 370.644531 C 667.414062 370.023438 667.503906 369.398438 667.566406 368.765625 C 667.628906 368.136719 667.660156 367.503906 667.660156 366.867188 C 667.660156 366.234375 667.628906 365.601562 667.566406 364.972656 C 667.503906 364.339844 667.414062 363.714844 667.289062 363.09375 C 667.164062 362.472656 667.011719 361.855469 666.828125 361.25 C 666.644531 360.644531 666.429688 360.046875 666.1875 359.460938 C 665.945312 358.875 665.671875 358.304688 665.375 357.746094 C 665.074219 357.1875 664.75 356.640625 664.398438 356.117188 C 664.046875 355.589844 663.667969 355.078125 663.265625 354.589844 C 662.863281 354.101562 662.4375 353.628906 661.988281 353.183594 C 661.542969 352.734375 661.074219 352.308594 660.582031 351.90625 C 660.09375 351.503906 659.582031 351.128906 659.054688 350.773438 C 658.527344 350.421875 657.984375 350.097656 657.425781 349.796875 C 656.867188 349.5 656.292969 349.230469 655.707031 348.988281 C 655.121094 348.742188 654.527344 348.53125 653.917969 348.347656 C 653.3125 348.164062 652.699219 348.007812 652.078125 347.886719 C 651.453125 347.761719 650.828125 347.667969 650.199219 347.605469 C 649.566406 347.542969 648.933594 347.511719 648.300781 347.511719 L 606.332031 347.511719 L 606.332031 295.882812 L 648.300781 295.882812 C 648.933594 295.882812 649.566406 295.851562 650.199219 295.789062 C 650.828125 295.726562 651.453125 295.632812 652.078125 295.507812 C 652.699219 295.386719 653.3125 295.230469 653.917969 295.046875 C 654.527344 294.863281 655.121094 294.652344 655.707031 294.40625 C 656.292969 294.164062 656.867188 293.894531 657.425781 293.597656 C 657.984375 293.296875 658.527344 292.972656 659.054688 292.621094 C 659.582031 292.265625 660.09375 291.890625 660.582031 291.488281 C 661.074219 291.085938 661.542969 290.660156 661.988281 290.210938 C 662.4375 289.765625 662.863281 289.296875 663.265625 288.804688 C 663.667969 288.316406 664.046875 287.804688 664.398438 287.277344 C 664.75 286.753906 665.074219 286.210938 665.375 285.648438 C 665.671875 285.089844 665.945312 284.519531 666.1875 283.933594 C 666.429688 283.347656 666.644531 282.75 666.828125 282.144531 C 667.011719 281.539062 667.164062 280.921875 667.289062 280.300781 C 667.414062 279.679688 667.503906 279.054688 667.566406 278.421875 C 667.628906 277.792969 667.660156 277.160156 667.660156 276.527344 C 667.660156 275.890625 667.628906 275.257812 667.566406 274.628906 C 667.503906 273.996094 667.414062 273.371094 667.289062 272.75 C 667.164062 272.128906 667.011719 271.511719 666.828125 270.90625 C 666.644531 270.300781 666.429688 269.703125 666.1875 269.117188 C 665.945312 268.53125 665.671875 267.960938 665.375 267.402344 C 665.074219 266.84375 664.75 266.300781 664.398438 265.773438 C 664.046875 265.246094 663.667969 264.738281 663.265625 264.246094 C 662.863281 263.757812 662.4375 263.289062 661.988281 262.839844 C 661.542969 262.390625 661.074219 261.964844 660.582031 261.5625 C 660.09375 261.160156 659.582031 260.785156 659.054688 260.433594 C 658.527344 260.078125 657.984375 259.753906 657.425781 259.457031 C 656.867188 259.15625 656.292969 258.886719 655.707031 258.644531 C 655.121094 258.402344 654.527344 258.1875 653.917969 258.003906 C 653.3125 257.820312 652.699219 257.664062 652.078125 257.542969 C 651.453125 257.417969 650.828125 257.324219 650.199219 257.261719 C 649.566406 257.199219 648.933594 257.167969 648.300781 257.167969 L 606.332031 257.167969 L 606.332031 205.539062 L 648.300781 205.539062 C 648.933594 205.539062 649.566406 205.507812 650.199219 205.445312 C 650.828125 205.382812 651.453125 205.289062 652.078125 205.167969 C 652.699219 205.042969 653.3125 204.890625 653.917969 204.703125 C 654.527344 204.519531 655.121094 204.308594 655.707031 204.066406 C 656.292969 203.820312 656.867188 203.550781 657.425781 203.253906 C 657.984375 202.953125 658.527344 202.628906 659.054688 202.277344 C 659.582031 201.925781 660.09375 201.546875 660.582031 201.144531 C 661.074219 200.742188 661.542969 200.316406 661.988281 199.867188 C 662.4375 199.421875 662.863281 198.953125 663.265625 198.460938 C 663.667969 197.972656 664.046875 197.464844 664.398438 196.9375 C 664.75 196.410156 665.074219 195.867188 665.375 195.308594 C 665.671875 194.746094 665.945312 194.175781 666.1875 193.589844 C 666.429688 193.003906 666.644531 192.40625 666.828125 191.800781 C 667.011719 191.195312 667.164062 190.582031 667.289062 189.957031 C 667.414062 189.335938 667.503906 188.710938 667.566406 188.078125 C 667.628906 187.449219 667.660156 186.816406 667.660156 186.183594 C 667.660156 185.546875 667.628906 184.917969 667.566406 184.285156 C 667.503906 183.652344 667.414062 183.027344 667.289062 182.40625 C 667.164062 181.785156 667.011719 181.171875 666.828125 180.5625 C 666.644531 179.957031 666.429688 179.359375 666.1875 178.773438 C 665.945312 178.191406 665.671875 177.617188 665.375 177.058594 C 665.074219 176.5 664.75 175.957031 664.398438 175.429688 C 664.046875 174.902344 663.667969 174.394531 663.265625 173.902344 C 662.863281 173.414062 662.4375 172.945312 661.988281 172.496094 C 661.542969 172.046875 661.074219 171.621094 660.582031 171.21875 C 660.09375 170.816406 659.582031 170.441406 659.054688 170.089844 C 658.527344 169.738281 657.984375 169.410156 657.425781 169.113281 C 656.867188 168.8125 656.292969 168.542969 655.707031 168.300781 C 655.121094 168.058594 654.527344 167.84375 653.917969 167.660156 C 653.3125 167.476562 652.699219 167.320312 652.078125 167.199219 C 651.453125 167.074219 650.828125 166.980469 650.199219 166.917969 C 649.566406 166.859375 648.933594 166.828125 648.300781 166.828125 L 606.332031 166.828125 L 606.332031 153.132812 C 606.335938 151.273438 606.378906 149.414062 606.472656 147.554688 C 606.566406 145.695312 606.703125 143.839844 606.886719 141.988281 C 607.066406 140.136719 607.296875 138.292969 607.570312 136.449219 C 607.84375 134.609375 608.164062 132.777344 608.527344 130.953125 C 608.890625 129.128906 609.296875 127.3125 609.75 125.507812 C 610.203125 123.703125 610.699219 121.910156 611.242188 120.132812 C 611.78125 118.351562 612.367188 116.585938 612.992188 114.832031 C 613.621094 113.082031 614.292969 111.347656 615.003906 109.628906 C 615.714844 107.910156 616.472656 106.207031 617.265625 104.527344 C 618.0625 102.84375 618.898438 101.183594 619.777344 99.542969 C 620.65625 97.902344 621.574219 96.285156 622.53125 94.6875 C 623.488281 93.09375 624.484375 91.519531 625.515625 89.972656 C 626.550781 88.425781 627.625 86.90625 628.734375 85.414062 C 629.839844 83.917969 630.988281 82.453125 632.167969 81.015625 C 633.347656 79.574219 634.5625 78.167969 635.8125 76.789062 C 637.0625 75.410156 638.347656 74.0625 639.664062 72.75 C 640.980469 71.433594 642.328125 70.152344 643.707031 68.902344 C 645.085938 67.652344 646.496094 66.4375 647.933594 65.257812 C 649.371094 64.078125 650.839844 62.933594 652.335938 61.824219 C 653.832031 60.714844 655.351562 59.644531 656.898438 58.613281 C 658.445312 57.578125 660.019531 56.582031 661.613281 55.628906 C 663.210938 54.671875 664.832031 53.753906 666.472656 52.878906 C 668.113281 52 669.777344 51.164062 671.457031 50.371094 C 673.140625 49.574219 674.84375 48.820312 676.5625 48.109375 C 678.28125 47.398438 680.015625 46.726562 681.769531 46.101562 C 683.523438 45.472656 685.289062 44.890625 687.070312 44.351562 C 688.851562 43.808594 690.644531 43.316406 692.449219 42.863281 C 694.253906 42.410156 696.070312 42.003906 697.894531 41.640625 C 699.722656 41.277344 701.554688 40.960938 703.394531 40.6875 C 705.234375 40.414062 707.082031 40.1875 708.933594 40.003906 C 710.789062 39.820312 712.644531 39.683594 714.5 39.59375 C 716.359375 39.5 718.21875 39.457031 720.082031 39.457031 C 721.941406 39.457031 723.804688 39.5 725.660156 39.59375 C 727.519531 39.683594 729.375 39.820312 731.230469 40.003906 C 733.082031 40.1875 734.925781 40.414062 736.769531 40.6875 C 738.609375 40.960938 740.441406 41.277344 742.269531 41.640625 C 744.09375 42.003906 745.910156 42.410156 747.714844 42.863281 C 749.519531 43.316406 751.3125 43.808594 753.09375 44.351562 C 754.875 44.890625 756.640625 45.472656 758.394531 46.101562 C 760.148438 46.726562 761.882812 47.398438 763.601562 48.109375 C 765.320312 48.820312 767.023438 49.574219 768.707031 50.371094 C 770.386719 51.164062 772.050781 52 773.691406 52.878906 C 775.332031 53.753906 776.953125 54.671875 778.546875 55.628906 C 780.144531 56.582031 781.71875 57.578125 783.265625 58.613281 C 784.8125 59.644531 786.332031 60.714844 787.828125 61.824219 C 789.324219 62.933594 790.789062 64.078125 792.230469 65.257812 C 793.667969 66.4375 795.078125 67.652344 796.457031 68.902344 C 797.835938 70.152344 799.183594 71.433594 800.5 72.75 C 801.816406 74.0625 803.097656 75.410156 804.347656 76.789062 C 805.597656 78.167969 806.816406 79.574219 807.996094 81.015625 C 809.175781 82.453125 810.320312 83.917969 811.429688 85.414062 C 812.539062 86.90625 813.613281 88.425781 814.644531 89.972656 C 815.679688 91.519531 816.675781 93.09375 817.632812 94.6875 C 818.589844 96.285156 819.507812 97.902344 820.386719 99.542969 C 821.261719 101.183594 822.101562 102.84375 822.898438 104.527344 C 823.691406 106.207031 824.445312 107.910156 825.160156 109.628906 C 825.871094 111.347656 826.542969 113.082031 827.171875 114.832031 C 827.796875 116.585938 828.382812 118.351562 828.921875 120.132812 C 829.464844 121.910156 829.960938 123.703125 830.414062 125.507812 C 830.867188 127.3125 831.273438 129.128906 831.636719 130.953125 C 832 132.777344 832.320312 134.609375 832.59375 136.449219 C 832.867188 138.292969 833.09375 140.136719 833.277344 141.988281 C 833.460938 143.839844 833.597656 145.695312 833.691406 147.554688 C 833.78125 149.414062 833.828125 151.273438 833.828125 153.132812 L 833.828125 166.828125 L 791.863281 166.828125 C 791.230469 166.828125 790.597656 166.859375 789.964844 166.917969 C 789.335938 166.980469 788.707031 167.074219 788.085938 167.199219 C 787.464844 167.320312 786.851562 167.476562 786.242188 167.660156 C 785.636719 167.84375 785.039062 168.058594 784.453125 168.300781 C 783.867188 168.542969 783.296875 168.8125 782.738281 169.113281 C 782.179688 169.410156 781.632812 169.738281 781.105469 170.089844 C 780.582031 170.441406 780.070312 170.816406 779.582031 171.21875 C 779.089844 171.621094 778.621094 172.046875 778.171875 172.496094 C 777.726562 172.945312 777.300781 173.414062 776.898438 173.902344 C 776.496094 174.394531 776.117188 174.902344 775.765625 175.429688 C 775.414062 175.957031 775.085938 176.5 774.789062 177.058594 C 774.488281 177.617188 774.21875 178.191406 773.976562 178.773438 C 773.734375 179.359375 773.519531 179.957031 773.335938 180.5625 C 773.152344 181.171875 773 181.785156 772.875 182.40625 C 772.75 183.027344 772.65625 183.652344 772.597656 184.285156 C 772.535156 184.917969 772.503906 185.546875 772.503906 186.183594 C 772.503906 186.816406 772.535156 187.449219 772.597656 188.078125 C 772.65625 188.710938 772.75 189.335938 772.875 189.957031 C 773 190.582031 773.152344 191.195312 773.335938 191.800781 C 773.519531 192.40625 773.734375 193.003906 773.976562 193.589844 C 774.21875 194.175781 774.488281 194.746094 774.789062 195.308594 C 775.085938 195.867188 775.414062 196.410156 775.765625 196.9375 C 776.117188 197.464844 776.496094 197.972656 776.898438 198.460938 C 777.300781 198.953125 777.726562 199.421875 778.171875 199.867188 C 778.621094 200.316406 779.089844 200.742188 779.582031 201.144531 C 780.070312 201.546875 780.582031 201.925781 781.105469 202.277344 C 781.632812 202.628906 782.179688 202.953125 782.738281 203.253906 C 783.296875 203.550781 783.867188 203.820312 784.453125 204.066406 C 785.039062 204.308594 785.636719 204.519531 786.242188 204.703125 C 786.851562 204.890625 787.464844 205.042969 788.085938 205.167969 C 788.707031 205.289062 789.335938 205.382812 789.964844 205.445312 C 790.597656 205.507812 791.230469 205.539062 791.863281 205.539062 L 833.828125 205.539062 L 833.828125 257.167969 L 791.863281 257.167969 C 791.230469 257.167969 790.597656 257.199219 789.964844 257.261719 C 789.335938 257.324219 788.707031 257.417969 788.085938 257.542969 C 787.464844 257.664062 786.851562 257.820312 786.242188 258.003906 C 785.636719 258.1875 785.039062 258.402344 784.453125 258.644531 C 783.867188 258.886719 783.296875 259.15625 782.738281 259.457031 C 782.179688 259.753906 781.632812 260.078125 781.105469 260.433594 C 780.582031 260.785156 780.070312 261.160156 779.582031 261.5625 C 779.089844 261.964844 778.621094 262.390625 778.171875 262.839844 C 777.726562 263.289062 777.300781 263.757812 776.898438 264.246094 C 776.496094 264.738281 776.117188 265.246094 775.765625 265.773438 C 775.414062 266.300781 775.085938 266.84375 774.789062 267.402344 C 774.488281 267.960938 774.21875 268.53125 773.976562 269.117188 C 773.734375 269.703125 773.519531 270.300781 773.335938 270.90625 C 773.152344 271.511719 773 272.128906 772.875 272.75 C 772.75 273.371094 772.65625 273.996094 772.597656 274.628906 C 772.535156 275.257812 772.503906 275.890625 772.503906 276.527344 C 772.503906 277.160156 772.535156 277.792969 772.597656 278.421875 C 772.65625 279.054688 772.75 279.679688 772.875 280.300781 C 773 280.921875 773.152344 281.539062 773.335938 282.144531 C 773.519531 282.75 773.734375 283.347656 773.976562 283.933594 C 774.21875 284.519531 774.488281 285.089844 774.789062 285.648438 C 775.085938 286.210938 775.414062 286.753906 775.765625 287.277344 C 776.117188 287.804688 776.496094 288.316406 776.898438 288.804688 C 777.300781 289.296875 777.726562 289.765625 778.171875 290.210938 C 778.621094 290.660156 779.089844 291.085938 779.582031 291.488281 C 780.070312 291.890625 780.582031 292.265625 781.105469 292.621094 C 781.632812 292.972656 782.179688 293.296875 782.738281 293.597656 C 783.296875 293.894531 783.867188 294.164062 784.453125 294.40625 C 785.039062 294.652344 785.636719 294.863281 786.242188 295.046875 C 786.851562 295.230469 787.464844 295.386719 788.085938 295.507812 C 788.707031 295.632812 789.335938 295.726562 789.964844 295.789062 C 790.597656 295.851562 791.230469 295.882812 791.863281 295.882812 L 833.828125 295.882812 L 833.828125 347.511719 L 791.863281 347.511719 C 791.230469 347.511719 790.597656 347.542969 789.964844 347.605469 C 789.335938 347.667969 788.707031 347.761719 788.085938 347.886719 C 787.464844 348.007812 786.851562 348.164062 786.242188 348.347656 C 785.636719 348.53125 785.039062 348.742188 784.453125 348.988281 C 783.867188 349.230469 783.296875 349.5 782.738281 349.796875 C 782.179688 350.097656 781.632812 350.421875 781.105469 350.773438 C 780.582031 351.128906 780.070312 351.503906 779.582031 351.90625 C 779.089844 352.308594 778.621094 352.734375 778.171875 353.183594 C 777.726562 353.628906 777.300781 354.101562 776.898438 354.589844 C 776.496094 355.078125 776.117188 355.589844 775.765625 356.117188 C 775.414062 356.640625 775.085938 357.1875 774.789062 357.746094 C 774.488281 358.304688 774.21875 358.875 773.976562 359.460938 C 773.734375 360.046875 773.519531 360.644531 773.335938 361.25 C 773.152344 361.855469 773 362.472656 772.875 363.09375 C 772.75 363.714844 772.65625 364.339844 772.597656 364.972656 C 772.535156 365.601562 772.503906 366.234375 772.503906 366.867188 C 772.503906 367.503906 772.535156 368.136719 772.597656 368.765625 C 772.65625 369.398438 772.75 370.023438 772.875 370.644531 C 773 371.265625 773.152344 371.882812 773.335938 372.488281 C 773.519531 373.09375 773.734375 373.691406 773.976562 374.277344 C 774.21875 374.863281 774.488281 375.433594 774.789062 375.992188 C 775.085938 376.550781 775.414062 377.09375 775.765625 377.621094 C 776.117188 378.148438 776.496094 378.65625 776.898438 379.148438 C 777.300781 379.636719 777.726562 380.105469 778.171875 380.554688 C 778.621094 381.003906 779.089844 381.429688 779.582031 381.832031 C 780.070312 382.234375 780.582031 382.609375 781.105469 382.960938 C 781.632812 383.316406 782.179688 383.640625 782.738281 383.9375 C 783.296875 384.238281 783.867188 384.507812 784.453125 384.75 C 785.039062 384.992188 785.636719 385.207031 786.242188 385.390625 C 786.851562 385.574219 787.464844 385.730469 788.085938 385.851562 C 788.707031 385.976562 789.335938 386.070312 789.964844 386.132812 C 790.597656 386.195312 791.230469 386.226562 791.863281 386.226562 L 833.828125 386.226562 L 833.828125 399.917969 C 833.828125 401.78125 833.78125 403.640625 833.691406 405.496094 C 833.597656 407.355469 833.460938 409.210938 833.277344 411.0625 C 833.09375 412.914062 832.867188 414.761719 832.59375 416.601562 C 832.320312 418.441406 832 420.273438 831.636719 422.097656 C 831.273438 423.921875 830.867188 425.738281 830.414062 427.542969 C 829.960938 429.347656 829.464844 431.140625 828.921875 432.921875 C 828.382812 434.699219 827.796875 436.464844 827.171875 438.21875 C 826.542969 439.96875 825.871094 441.707031 825.160156 443.425781 C 824.445312 445.144531 823.691406 446.84375 822.898438 448.523438 C 822.101562 450.207031 821.261719 451.867188 820.386719 453.507812 C 819.507812 455.148438 818.589844 456.769531 817.632812 458.363281 C 816.675781 459.960938 815.679688 461.53125 814.644531 463.078125 C 813.613281 464.625 812.539062 466.144531 811.429688 467.640625 C 810.320312 469.132812 809.175781 470.597656 807.996094 472.039062 C 806.816406 473.476562 805.597656 474.882812 804.347656 476.261719 C 803.097656 477.640625 801.816406 478.988281 800.5 480.300781 C 799.183594 481.617188 797.835938 482.902344 796.457031 484.148438 C 795.078125 485.398438 793.667969 486.613281 792.230469 487.792969 C 790.789062 488.972656 789.324219 490.117188 787.828125 491.226562 C 786.332031 492.335938 784.8125 493.40625 783.265625 494.4375 C 781.71875 495.472656 780.144531 496.46875 778.546875 497.421875 C 776.953125 498.378906 775.332031 499.296875 773.691406 500.171875 C 772.050781 501.050781 770.386719 501.886719 768.707031 502.683594 C 767.023438 503.476562 765.320312 504.230469 763.601562 504.941406 C 761.882812 505.65625 760.148438 506.324219 758.394531 506.949219 C 756.640625 507.578125 754.875 508.160156 753.09375 508.699219 C 751.3125 509.242188 749.519531 509.738281 747.714844 510.1875 C 745.910156 510.640625 744.09375 511.046875 742.269531 511.410156 C 740.441406 511.773438 738.609375 512.09375 736.769531 512.363281 C 734.925781 512.636719 733.082031 512.867188 731.230469 513.046875 C 729.375 513.230469 727.519531 513.367188 725.660156 513.457031 C 723.804688 513.550781 721.941406 513.59375 720.082031 513.59375 C 718.21875 513.59375 716.359375 513.550781 714.5 513.457031 C 712.644531 513.367188 710.789062 513.230469 708.933594 513.046875 C 707.082031 512.867188 705.234375 512.636719 703.394531 512.363281 C 701.554688 512.09375 699.722656 511.773438 697.894531 511.410156 C 696.070312 511.046875 694.253906 510.640625 692.449219 510.1875 C 690.644531 509.738281 688.851562 509.242188 687.070312 508.699219 C 685.289062 508.160156 683.523438 507.578125 681.769531 506.949219 C 680.015625 506.324219 678.28125 505.65625 676.5625 504.941406 C 674.84375 504.230469 673.140625 503.476562 671.457031 502.683594 C 669.777344 501.886719 668.113281 501.050781 666.472656 500.171875 C 664.832031 499.296875 663.210938 498.378906 661.617188 497.421875 C 660.019531 496.46875 658.445312 495.472656 656.898438 494.4375 C 655.351562 493.40625 653.832031 492.335938 652.335938 491.226562 C 650.839844 490.117188 649.371094 488.972656 647.933594 487.792969 C 646.496094 486.613281 645.085938 485.398438 643.707031 484.148438 C 642.328125 482.902344 640.980469 481.617188 639.664062 480.300781 C 638.347656 478.988281 637.0625 477.640625 635.8125 476.261719 C 634.5625 474.882812 633.347656 473.476562 632.167969 472.039062 C 630.988281 470.597656 629.839844 469.132812 628.734375 467.640625 C 627.625 466.144531 626.550781 464.625 625.515625 463.078125 C 624.484375 461.53125 623.488281 459.960938 622.53125 458.363281 C 621.574219 456.769531 620.65625 455.148438 619.777344 453.507812 C 618.898438 451.867188 618.0625 450.207031 617.265625 448.523438 C 616.472656 446.84375 615.714844 445.144531 615.003906 443.425781 C 614.289062 441.707031 613.621094 439.96875 612.992188 438.21875 C 612.367188 436.464844 611.78125 434.699219 611.242188 432.921875 C 610.699219 431.140625 610.203125 429.347656 609.75 427.542969 C 609.296875 425.738281 608.890625 423.921875 608.527344 422.097656 C 608.164062 420.273438 607.84375 418.441406 607.570312 416.601562 C 607.296875 414.761719 607.066406 412.914062 606.886719 411.0625 C 606.703125 409.210938 606.566406 407.355469 606.472656 405.496094 C 606.378906 403.640625 606.335938 401.78125 606.332031 399.917969 Z M 606.332031 399.917969 " fill-opacity="1" fill-rule="nonzero"/><g ><path fill="#000000" d="M 451.441406 310.398438 C 450.808594 310.398438 450.175781 310.429688 449.546875 310.492188 C 448.914062 310.554688 448.289062 310.648438 447.664062 310.769531 C 447.042969 310.894531 446.429688 311.046875 445.824219 311.230469 C 445.214844 311.414062 444.621094 311.628906 444.035156 311.871094 C 443.449219 312.113281 442.875 312.386719 442.316406 312.683594 C 441.757812 312.984375 441.214844 313.308594 440.6875 313.660156 C 440.160156 314.011719 439.652344 314.390625 439.160156 314.792969 C 438.671875 315.195312 438.199219 315.621094 437.753906 316.066406 C 437.304688 316.515625 436.878906 316.984375 436.476562 317.476562 C 436.074219 317.964844 435.695312 318.472656 435.34375 319 C 434.992188 319.527344 434.667969 320.070312 434.367188 320.628906 C 434.070312 321.1875 433.796875 321.761719 433.554688 322.347656 C 433.3125 322.933594 433.097656 323.527344 432.914062 324.136719 C 432.730469 324.742188 432.578125 325.355469 432.453125 325.976562 C 432.332031 326.601562 432.238281 327.226562 432.175781 327.855469 C 432.113281 328.488281 432.082031 329.121094 432.082031 329.753906 L 432.082031 366.046875 C 432.089844 370.554688 432.199219 375.058594 432.417969 379.5625 C 432.636719 384.066406 432.957031 388.5625 433.386719 393.046875 C 433.816406 397.535156 434.347656 402.011719 434.988281 406.472656 C 435.625 410.9375 436.367188 415.382812 437.214844 419.808594 C 438.0625 424.238281 439.011719 428.640625 440.066406 433.027344 C 441.121094 437.410156 442.277344 441.765625 443.535156 446.09375 C 444.792969 450.421875 446.152344 454.71875 447.613281 458.984375 C 449.074219 463.25 450.632812 467.480469 452.289062 471.671875 C 453.949219 475.863281 455.703125 480.015625 457.558594 484.125 C 459.410156 488.234375 461.359375 492.296875 463.402344 496.316406 C 465.449219 500.335938 467.585938 504.300781 469.816406 508.21875 C 472.046875 512.136719 474.367188 516.003906 476.777344 519.8125 C 479.1875 523.621094 481.6875 527.371094 484.277344 531.0625 C 486.863281 534.753906 489.535156 538.382812 492.292969 541.949219 C 495.050781 545.519531 497.890625 549.019531 500.816406 552.453125 C 503.738281 555.882812 506.738281 559.246094 509.816406 562.539062 C 512.898438 565.832031 516.054688 569.050781 519.285156 572.195312 C 522.515625 575.339844 525.816406 578.40625 529.191406 581.398438 C 532.566406 584.386719 536.011719 587.296875 539.523438 590.125 C 543.035156 592.953125 546.609375 595.699219 550.25 598.359375 C 553.890625 601.019531 557.589844 603.59375 561.351562 606.078125 C 565.113281 608.566406 568.929688 610.964844 572.804688 613.273438 C 576.675781 615.578125 580.601562 617.796875 584.582031 619.917969 C 588.558594 622.042969 592.582031 624.074219 596.65625 626.007812 C 600.730469 627.941406 604.84375 629.78125 609.003906 631.523438 C 613.164062 633.265625 617.359375 634.90625 621.597656 636.453125 C 625.832031 638 630.101562 639.441406 634.40625 640.789062 C 638.710938 642.132812 643.042969 643.375 647.40625 644.515625 C 651.769531 645.660156 656.15625 646.699219 660.566406 647.632812 C 664.976562 648.570312 669.410156 649.402344 673.859375 650.128906 C 678.308594 650.855469 682.773438 651.480469 687.253906 652 C 691.734375 652.515625 696.222656 652.929688 700.71875 653.238281 L 700.71875 770.097656 L 557.929688 770.097656 C 557.296875 770.097656 556.664062 770.128906 556.03125 770.191406 C 555.402344 770.253906 554.773438 770.347656 554.152344 770.472656 C 553.53125 770.59375 552.917969 770.75 552.308594 770.933594 C 551.703125 771.117188 551.105469 771.332031 550.519531 771.574219 C 549.933594 771.816406 549.363281 772.085938 548.804688 772.386719 C 548.246094 772.683594 547.699219 773.007812 547.175781 773.363281 C 546.648438 773.714844 546.136719 774.089844 545.648438 774.492188 C 545.15625 774.894531 544.6875 775.320312 544.238281 775.769531 C 543.792969 776.21875 543.367188 776.6875 542.964844 777.175781 C 542.5625 777.667969 542.183594 778.175781 541.832031 778.703125 C 541.480469 779.230469 541.152344 779.773438 540.855469 780.332031 C 540.554688 780.890625 540.285156 781.460938 540.042969 782.046875 C 539.800781 782.632812 539.585938 783.230469 539.402344 783.835938 C 539.21875 784.441406 539.066406 785.058594 538.941406 785.679688 C 538.816406 786.300781 538.722656 786.925781 538.664062 787.558594 C 538.601562 788.1875 538.570312 788.820312 538.570312 789.457031 C 538.570312 790.089844 538.601562 790.722656 538.664062 791.351562 C 538.722656 791.984375 538.816406 792.609375 538.941406 793.230469 C 539.066406 793.851562 539.21875 794.46875 539.402344 795.074219 C 539.585938 795.679688 539.800781 796.277344 540.042969 796.863281 C 540.285156 797.449219 540.554688 798.019531 540.855469 798.578125 C 541.152344 799.136719 541.480469 799.679688 541.832031 800.207031 C 542.183594 800.734375 542.5625 801.246094 542.964844 801.734375 C 543.367188 802.222656 543.792969 802.695312 544.238281 803.140625 C 544.6875 803.589844 545.15625 804.015625 545.648438 804.417969 C 546.136719 804.820312 546.648438 805.195312 547.175781 805.546875 C 547.699219 805.902344 548.246094 806.226562 548.804688 806.527344 C 549.363281 806.824219 549.933594 807.09375 550.519531 807.335938 C 551.105469 807.582031 551.703125 807.792969 552.308594 807.976562 C 552.917969 808.160156 553.53125 808.316406 554.152344 808.4375 C 554.773438 808.5625 555.402344 808.65625 556.03125 808.71875 C 556.664062 808.78125 557.296875 808.8125 557.929688 808.8125 L 888.816406 808.8125 C 889.449219 808.8125 890.082031 808.78125 890.714844 808.71875 C 891.34375 808.65625 891.972656 808.5625 892.59375 808.4375 C 893.214844 808.316406 893.828125 808.160156 894.4375 807.976562 C 895.042969 807.792969 895.640625 807.582031 896.226562 807.335938 C 896.8125 807.09375 897.382812 806.824219 897.941406 806.527344 C 898.503906 806.226562 899.046875 805.902344 899.574219 805.546875 C 900.101562 805.195312 900.609375 804.820312 901.097656 804.417969 C 901.589844 804.015625 902.058594 803.589844 902.507812 803.140625 C 902.953125 802.695312 903.378906 802.222656 903.78125 801.734375 C 904.183594 801.246094 904.5625 800.734375 904.914062 800.207031 C 905.265625 799.679688 905.59375 799.136719 905.890625 798.578125 C 906.191406 798.019531 906.460938 797.449219 906.703125 796.863281 C 906.945312 796.277344 907.160156 795.679688 907.34375 795.074219 C 907.527344 794.46875 907.679688 793.851562 907.804688 793.230469 C 907.929688 792.609375 908.023438 791.984375 908.085938 791.351562 C 908.144531 790.722656 908.175781 790.089844 908.175781 789.457031 C 908.175781 788.820312 908.144531 788.1875 908.085938 787.558594 C 908.023438 786.925781 907.929688 786.300781 907.804688 785.679688 C 907.679688 785.058594 907.527344 784.441406 907.34375 783.835938 C 907.160156 783.230469 906.945312 782.632812 906.703125 782.046875 C 906.460938 781.460938 906.191406 780.890625 905.890625 780.332031 C 905.59375 779.773438 905.265625 779.230469 904.914062 778.703125 C 904.5625 778.175781 904.183594 777.667969 903.78125 777.175781 C 903.378906 776.6875 902.953125 776.21875 902.507812 775.769531 C 902.058594 775.320312 901.589844 774.894531 901.097656 774.492188 C 900.609375 774.089844 900.101562 773.714844 899.574219 773.363281 C 899.046875 773.007812 898.503906 772.683594 897.941406 772.386719 C 897.382812 772.085938 896.8125 771.816406 896.226562 771.574219 C 895.640625 771.332031 895.042969 771.117188 894.4375 770.933594 C 893.828125 770.75 893.214844 770.59375 892.59375 770.472656 C 891.972656 770.347656 891.34375 770.253906 890.714844 770.191406 C 890.082031 770.128906 889.449219 770.097656 888.816406 770.097656 L 739.441406 770.097656 L 739.441406 653.238281 C 743.941406 652.929688 748.429688 652.515625 752.910156 652 C 757.390625 651.480469 761.855469 650.855469 766.304688 650.128906 C 770.753906 649.402344 775.183594 648.570312 779.597656 647.632812 C 784.007812 646.699219 788.394531 645.660156 792.757812 644.515625 C 797.117188 643.375 801.453125 642.132812 805.757812 640.789062 C 810.058594 639.441406 814.332031 638 818.566406 636.453125 C 822.800781 634.90625 827 633.265625 831.160156 631.523438 C 835.320312 629.78125 839.433594 627.941406 843.507812 626.007812 C 847.578125 624.074219 851.605469 622.042969 855.582031 619.917969 C 859.558594 617.796875 863.484375 615.578125 867.359375 613.273438 C 871.234375 610.964844 875.050781 608.566406 878.8125 606.078125 C 882.574219 603.59375 886.273438 601.019531 889.914062 598.359375 C 893.554688 595.699219 897.128906 592.953125 900.640625 590.125 C 904.152344 587.296875 907.59375 584.386719 910.96875 581.398438 C 914.34375 578.410156 917.648438 575.339844 920.878906 572.195312 C 924.109375 569.050781 927.265625 565.832031 930.347656 562.539062 C 933.425781 559.246094 936.425781 555.882812 939.347656 552.453125 C 942.269531 549.019531 945.109375 545.519531 947.867188 541.949219 C 950.628906 538.382812 953.300781 534.753906 955.886719 531.0625 C 958.476562 527.371094 960.972656 523.621094 963.386719 519.8125 C 965.796875 516.003906 968.117188 512.136719 970.347656 508.21875 C 972.578125 504.300781 974.714844 500.335938 976.757812 496.316406 C 978.804688 492.296875 980.753906 488.234375 982.605469 484.125 C 984.457031 480.015625 986.214844 475.863281 987.871094 471.671875 C 989.53125 467.480469 991.089844 463.25 992.550781 458.984375 C 994.011719 454.71875 995.371094 450.421875 996.628906 446.09375 C 997.886719 441.765625 999.042969 437.410156 1000.097656 433.027344 C 1001.152344 428.640625 1002.101562 424.238281 1002.949219 419.808594 C 1003.796875 415.382812 1004.539062 410.9375 1005.175781 406.472656 C 1005.816406 402.011719 1006.347656 397.535156 1006.777344 393.046875 C 1007.207031 388.5625 1007.527344 384.066406 1007.746094 379.5625 C 1007.964844 375.058594 1008.074219 370.554688 1008.082031 366.046875 L 1008.082031 329.753906 C 1008.082031 329.121094 1008.050781 328.488281 1007.988281 327.855469 C 1007.925781 327.226562 1007.832031 326.601562 1007.710938 325.976562 C 1007.585938 325.355469 1007.433594 324.742188 1007.246094 324.136719 C 1007.0625 323.527344 1006.851562 322.933594 1006.609375 322.347656 C 1006.367188 321.761719 1006.09375 321.1875 1005.796875 320.628906 C 1005.496094 320.070312 1005.171875 319.527344 1004.820312 319 C 1004.464844 318.472656 1004.089844 317.964844 1003.6875 317.476562 C 1003.285156 316.984375 1002.859375 316.515625 1002.410156 316.066406 C 1001.960938 315.621094 1001.492188 315.195312 1001.003906 314.792969 C 1000.511719 314.390625 1000.003906 314.011719 999.476562 313.660156 C 998.949219 313.308594 998.40625 312.984375 997.847656 312.683594 C 997.289062 312.386719 996.714844 312.113281 996.128906 311.871094 C 995.542969 311.628906 994.949219 311.414062 994.339844 311.230469 C 993.734375 311.046875 993.121094 310.894531 992.496094 310.769531 C 991.875 310.648438 991.25 310.554688 990.617188 310.492188 C 989.988281 310.429688 989.355469 310.398438 988.71875 310.398438 C 988.085938 310.398438 987.453125 310.429688 986.824219 310.492188 C 986.191406 310.554688 985.566406 310.648438 984.941406 310.769531 C 984.320312 310.894531 983.707031 311.046875 983.101562 311.230469 C 982.492188 311.414062 981.898438 311.628906 981.3125 311.871094 C 980.726562 312.113281 980.152344 312.386719 979.59375 312.683594 C 979.035156 312.984375 978.492188 313.308594 977.964844 313.660156 C 977.4375 314.011719 976.929688 314.390625 976.4375 314.792969 C 975.949219 315.195312 975.476562 315.621094 975.03125 316.066406 C 974.582031 316.515625 974.15625 316.984375 973.753906 317.476562 C 973.351562 317.964844 972.972656 318.472656 972.621094 319 C 972.269531 319.527344 971.945312 320.070312 971.644531 320.628906 C 971.347656 321.1875 971.074219 321.761719 970.832031 322.347656 C 970.589844 322.933594 970.375 323.527344 970.191406 324.136719 C 970.007812 324.742188 969.855469 325.355469 969.730469 325.976562 C 969.609375 326.601562 969.515625 327.226562 969.453125 327.855469 C 969.390625 328.488281 969.359375 329.121094 969.359375 329.753906 L 969.359375 366.046875 C 969.359375 370.125 969.257812 374.199219 969.054688 378.273438 C 968.851562 382.34375 968.550781 386.410156 968.152344 390.46875 C 967.75 394.523438 967.25 398.570312 966.648438 402.605469 C 966.050781 406.636719 965.351562 410.652344 964.554688 414.652344 C 963.757812 418.652344 962.863281 422.628906 961.871094 426.582031 C 960.878906 430.539062 959.789062 434.464844 958.605469 438.367188 C 957.417969 442.269531 956.140625 446.140625 954.765625 449.980469 C 953.390625 453.816406 951.921875 457.621094 950.359375 461.386719 C 948.796875 465.152344 947.144531 468.878906 945.398438 472.566406 C 943.65625 476.25 941.820312 479.890625 939.898438 483.488281 C 937.972656 487.082031 935.960938 490.628906 933.863281 494.125 C 931.765625 497.625 929.585938 501.066406 927.320312 504.457031 C 925.050781 507.847656 922.703125 511.179688 920.273438 514.453125 C 917.84375 517.726562 915.332031 520.941406 912.746094 524.09375 C 910.15625 527.242188 907.492188 530.332031 904.753906 533.351562 C 902.015625 536.371094 899.203125 539.324219 896.316406 542.207031 C 893.433594 545.089844 890.480469 547.898438 887.457031 550.636719 C 884.433594 553.375 881.347656 556.035156 878.191406 558.625 C 875.039062 561.210938 871.824219 563.71875 868.546875 566.144531 C 865.273438 568.574219 861.9375 570.921875 858.546875 573.1875 C 855.15625 575.449219 851.710938 577.632812 848.210938 579.726562 C 844.710938 581.824219 841.164062 583.832031 837.566406 585.753906 C 833.96875 587.675781 830.328125 589.507812 826.640625 591.25 C 822.953125 592.992188 819.222656 594.644531 815.457031 596.207031 C 811.6875 597.765625 807.882812 599.230469 804.042969 600.605469 C 800.203125 601.980469 796.332031 603.257812 792.425781 604.441406 C 788.523438 605.625 784.59375 606.710938 780.636719 607.703125 C 776.679688 608.691406 772.703125 609.585938 768.703125 610.378906 C 764.703125 611.175781 760.683594 611.871094 756.648438 612.46875 C 752.617188 613.070312 748.570312 613.566406 744.511719 613.96875 C 740.449219 614.367188 736.382812 614.667969 732.308594 614.867188 C 728.238281 615.066406 724.160156 615.167969 720.082031 615.167969 C 716.003906 615.167969 711.925781 615.066406 707.851562 614.867188 C 703.777344 614.667969 699.710938 614.367188 695.652344 613.96875 C 691.59375 613.566406 687.546875 613.070312 683.511719 612.46875 C 679.480469 611.871094 675.460938 611.175781 671.460938 610.378906 C 667.460938 609.585938 663.480469 608.691406 659.523438 607.703125 C 655.570312 606.710938 651.640625 605.625 647.734375 604.441406 C 643.832031 603.257812 639.960938 601.980469 636.121094 600.605469 C 632.28125 599.230469 628.476562 597.765625 624.707031 596.207031 C 620.9375 594.644531 617.210938 592.992188 613.523438 591.25 C 609.835938 589.507812 606.195312 587.675781 602.597656 585.753906 C 599 583.832031 595.453125 581.824219 591.953125 579.726562 C 588.453125 577.632812 585.007812 575.449219 581.617188 573.1875 C 578.226562 570.921875 574.890625 568.574219 571.617188 566.144531 C 568.339844 563.71875 565.125 561.210938 561.972656 558.625 C 558.816406 556.035156 555.730469 553.375 552.707031 550.636719 C 549.683594 547.898438 546.730469 545.089844 543.847656 542.207031 C 540.960938 539.324219 538.148438 536.371094 535.410156 533.351562 C 532.671875 530.332031 530.007812 527.242188 527.417969 524.09375 C 524.832031 520.941406 522.320312 517.726562 519.890625 514.453125 C 517.460938 511.179688 515.113281 507.847656 512.84375 504.457031 C 510.578125 501.066406 508.394531 497.625 506.296875 494.125 C 504.199219 490.628906 502.191406 487.082031 500.265625 483.488281 C 498.34375 479.890625 496.507812 476.25 494.765625 472.566406 C 493.019531 468.878906 491.367188 465.152344 489.804688 461.386719 C 488.242188 457.621094 486.773438 453.816406 485.398438 449.980469 C 484.023438 446.140625 482.742188 442.269531 481.558594 438.367188 C 480.375 434.464844 479.285156 430.539062 478.292969 426.582031 C 477.300781 422.628906 476.40625 418.652344 475.609375 414.652344 C 474.8125 410.652344 474.113281 406.636719 473.515625 402.605469 C 472.914062 398.570312 472.414062 394.523438 472.011719 390.46875 C 471.613281 386.410156 471.308594 382.34375 471.109375 378.273438 C 470.90625 374.199219 470.804688 370.125 470.804688 366.046875 L 470.804688 329.753906 C 470.804688 329.121094 470.773438 328.488281 470.710938 327.855469 C 470.648438 327.226562 470.554688 326.601562 470.433594 325.976562 C 470.308594 325.355469 470.15625 324.742188 469.972656 324.136719 C 469.785156 323.527344 469.574219 322.933594 469.332031 322.347656 C 469.089844 321.761719 468.816406 321.1875 468.519531 320.628906 C 468.21875 320.070312 467.894531 319.527344 467.542969 319 C 467.1875 318.472656 466.8125 317.964844 466.410156 317.476562 C 466.007812 316.984375 465.582031 316.515625 465.132812 316.066406 C 464.683594 315.621094 464.214844 315.195312 463.726562 314.792969 C 463.234375 314.390625 462.726562 314.011719 462.199219 313.660156 C 461.671875 313.308594 461.128906 312.984375 460.570312 312.683594 C 460.011719 312.386719 459.4375 312.113281 458.851562 311.871094 C 458.265625 311.628906 457.671875 311.414062 457.0625 311.230469 C 456.457031 311.046875 455.84375 310.894531 455.21875 310.769531 C 454.597656 310.648438 453.972656 310.554688 453.339844 310.492188 C 452.710938 310.429688 452.078125 310.398438 451.441406 310.398438 Z M 451.441406 310.398438 " fill-opacity="1" fill-rule="nonzero"/></g></svg>